<mxfile host="app.diagrams.net" modified="2024-06-22T16:10:05.255Z" agent="Mozilla/5.0 (Windows NT 10.0; Win64; x64) AppleWebKit/537.36 (KHTML, like Gecko) Chrome/126.0.0.0 Safari/537.36 Edg/126.0.0.0" version="24.6.2" etag="62Mzq1NkAEfkfkovGr0y" type="github">
  <diagram name="PÃ¡gina-1" id="14KMt5Ncu5pf_FBmmKuZ">
    <mxGraphModel>
      <root>
        <mxCell id="0" />
        <mxCell id="1" parent="0" />
      </root>
    </mxGraphModel>
  </diagram>
</mxfile>
